<?xml version="1.0" encoding="utf-8"?>
<!-- Generator: Adobe Illustrator 16.0.0, SVG Export Plug-In . SVG Version: 6.00 Build 0)  -->
<!DOCTYPE svg PUBLIC "-//W3C//DTD SVG 1.1//EN" "http://www.w3.org/Graphics/SVG/1.1/DTD/svg11.dtd">
<svg version="1.1" id="Layer_1" xmlns="http://www.w3.org/2000/svg" xmlns:xlink="http://www.w3.org/1999/xlink" x="0px" y="0px"
	 width="32px" height="32px" viewBox="0 0 32 32" enable-background="new 0 0 32 32" xml:space="preserve">
<g id="Shape_6">
	<g>
		<path fill-rule="evenodd" clip-rule="evenodd" fill="#63ACDD" d="M27.589,6H5.41C4.084,6,3,7.073,3,8.386v16.226
			c0,1.313,1.085,2.387,2.411,2.387h22.179c1.326,0,2.411-1.074,2.411-2.387V8.386C30,7.073,28.915,6,27.589,6z M28.071,24.611
			c0,0.254-0.227,0.478-0.482,0.478H5.41c-0.256,0-0.482-0.224-0.482-0.478V13.158c0.316,0.357,0.663,0.687,1.04,0.984
			c2.154,1.641,4.324,3.311,6.418,5.041c1.13,0.939,2.531,2.088,4.098,2.088H16.5h0.016c1.567,0,2.967-1.148,4.098-2.088
			c2.094-1.73,4.264-3.4,6.418-5.041c0.377-0.298,0.724-0.627,1.04-0.984V24.611z M28.071,8.938c0,1.269-1.235,2.924-2.215,3.684
			c-2.02,1.566-4.038,3.147-6.042,4.728c-0.799,0.642-2.245,2.014-3.299,2.014H16.5h-0.015c-1.054,0-2.501-1.372-3.299-2.014
			c-2.004-1.58-4.023-3.161-6.042-4.728c-1.356-1.059-2.215-2.535-2.215-4.235c0-0.253,0.226-0.477,0.482-0.477h22.179
			C28.161,7.909,28.071,8.565,28.071,8.938z"/>
	</g>
</g>
</svg>
