<?xml version="1.0" encoding="utf-8"?>
<!-- Generator: Adobe Illustrator 16.0.0, SVG Export Plug-In . SVG Version: 6.00 Build 0)  -->
<!DOCTYPE svg PUBLIC "-//W3C//DTD SVG 1.1//EN" "http://www.w3.org/Graphics/SVG/1.1/DTD/svg11.dtd">
<svg version="1.1" id="Layer_1" xmlns="http://www.w3.org/2000/svg" xmlns:xlink="http://www.w3.org/1999/xlink" x="0px" y="0px"
	 width="32px" height="32px" viewBox="0 0 32 32" enable-background="new 0 0 32 32" xml:space="preserve">
<g>
	<defs>
		<rect id="SVGID_1_" x="6" y="6" width="19.262" height="21.005"/>
	</defs>
	<clipPath id="SVGID_2_">
		<use xlink:href="#SVGID_1_"  overflow="visible"/>
	</clipPath>
	<path clip-path="url(#SVGID_2_)" fill="#FFFFFF" d="M21.609,27.006H9.653C7.477,27.006,6,25.68,6,23.465
		c0-3.092,0.725-7.837,4.733-7.837c0.425,0,2.217,1.901,4.897,1.901c2.682,0,4.474-1.901,4.898-1.901
		c4.008,0,4.732,4.745,4.732,7.837C25.262,25.68,23.785,27.006,21.609,27.006 M15.631,16.503c-2.9,0-5.252-2.352-5.252-5.252
		C10.378,8.352,12.731,6,15.631,6c2.9,0,5.253,2.352,5.253,5.251C20.884,14.151,18.531,16.503,15.631,16.503"/>
</g>
</svg>
