<?xml version="1.0" encoding="utf-8"?>
<!-- Generator: Adobe Illustrator 16.0.0, SVG Export Plug-In . SVG Version: 6.00 Build 0)  -->
<!DOCTYPE svg PUBLIC "-//W3C//DTD SVG 1.1//EN" "http://www.w3.org/Graphics/SVG/1.1/DTD/svg11.dtd">
<svg version="1.1" id="Layer_1" xmlns="http://www.w3.org/2000/svg" xmlns:xlink="http://www.w3.org/1999/xlink" x="0px" y="0px"
	 width="32px" height="32px" viewBox="0 0 32 32" enable-background="new 0 0 32 32" xml:space="preserve">
<g>
	<defs>
		<rect id="SVGID_1_" x="6" y="4" width="20.848" height="25.084"/>
	</defs>
	<clipPath id="SVGID_2_">
		<use xlink:href="#SVGID_1_"  overflow="visible"/>
	</clipPath>
	<path clip-path="url(#SVGID_2_)" fill="#FFFFFF" d="M25.255,15.201L7.737,15.186C6.778,15.186,6,15.964,6,16.923v10.425
		c0,0.959,0.778,1.738,1.737,1.738H25.11c0.959,0,1.737-0.779,1.737-1.738V16.923C26.848,16.014,26.145,15.276,25.255,15.201
		 M17.04,27.42h-1.472v-1.473h1.472V27.42z M19.373,20.855c-0.215,0.389-0.637,0.859-1.264,1.416
		c-0.421,0.373-0.696,0.648-0.825,0.824c-0.13,0.178-0.226,0.381-0.287,0.611c-0.063,0.23-0.099,0.604-0.108,1.119h-1.243
		c-0.004-0.172-0.007-0.301-0.007-0.387c0-0.508,0.072-0.945,0.216-1.314c0.105-0.277,0.275-0.559,0.51-0.84
		c0.172-0.207,0.481-0.506,0.929-0.9c0.448-0.396,0.739-0.711,0.873-0.945s0.201-0.49,0.201-0.768c0-0.502-0.197-0.945-0.589-1.326
		c-0.393-0.379-0.874-0.57-1.443-0.57c-0.551,0-1.01,0.172-1.379,0.518c-0.369,0.344-0.61,0.883-0.725,1.615l-1.328-0.158
		c0.119-0.98,0.474-1.732,1.066-2.254c0.591-0.522,1.372-0.783,2.344-0.783c1.028,0,1.851,0.28,2.463,0.84
		c0.612,0.561,0.919,1.238,0.919,2.033C19.696,20.045,19.588,20.469,19.373,20.855"/>
	
		<path clip-path="url(#SVGID_2_)" fill="none" stroke="#FFFFFF" stroke-width="1.5" stroke-linecap="round" stroke-linejoin="round" d="
		M10.103,15.188v-3.576c0,0-0.293-6.853,6.198-6.853c6.604-0.294,6.604,6.853,6.604,6.853v3.586"/>
</g>
</svg>
