<?xml version="1.0" encoding="utf-8"?>
<!-- Generator: Adobe Illustrator 16.0.0, SVG Export Plug-In . SVG Version: 6.00 Build 0)  -->
<!DOCTYPE svg PUBLIC "-//W3C//DTD SVG 1.1//EN" "http://www.w3.org/Graphics/SVG/1.1/DTD/svg11.dtd">
<svg version="1.1" id="Layer_1" xmlns="http://www.w3.org/2000/svg" xmlns:xlink="http://www.w3.org/1999/xlink" x="0px" y="0px"
	 width="32px" height="32px" viewBox="0 0 32 32" enable-background="new 0 0 32 32" xml:space="preserve">
<g>
	<defs>
		<rect id="SVGID_1_" x="5" y="3" width="22.348" height="25.834"/>
	</defs>
	<clipPath id="SVGID_2_">
		<use xlink:href="#SVGID_1_"  overflow="visible"/>
	</clipPath>
	<path clip-path="url(#SVGID_2_)" fill="none" stroke="#62adde" d="M25.005,14.201L7.487,14.186c-0.959,0-1.737,0.779-1.737,1.738
		v10.422c0,0.961,0.778,1.738,1.737,1.738H24.86c0.959,0,1.737-0.777,1.737-1.738V15.924C26.598,15.014,25.896,14.276,25.005,14.201
		z"/>
	
		<path clip-path="url(#SVGID_2_)" fill="none" stroke="#62adde" stroke-width="1.5" stroke-linecap="round" stroke-linejoin="round" d="
		M25.005,14.201L7.487,14.186c-0.959,0-1.737,0.779-1.737,1.738v10.422c0,0.961,0.778,1.738,1.737,1.738H24.86
		c0.959,0,1.737-0.777,1.737-1.738V15.924C26.598,15.014,25.896,14.276,25.005,14.201z"/>
	
		<path clip-path="url(#SVGID_2_)" fill="none" stroke="#62adde" stroke-width="1.5" stroke-linecap="round" stroke-linejoin="round" d="
		M9.853,14.188v-3.576c0,0-0.293-6.853,6.198-6.853c6.604-0.294,6.604,6.853,6.604,6.853v3.586"/>
</g>
</svg>
